<mxfile host="app.diagrams.net" modified="2023-03-26T21:33:45.689Z" agent="Mozilla/5.0 (Windows NT 10.0; Win64; x64) AppleWebKit/537.36 (KHTML, like Gecko) Chrome/111.0.0.0 Safari/537.36" version="21.1.1" etag="UXPd-076AYqQpvFK9EPG" type="github">
  <diagram name="Page-1" id="E2BYh8Jvopw-dwK1uKyH">
    <mxGraphModel>
      <root>
        <mxCell id="0" />
        <mxCell id="1" parent="0" />
      </root>
    </mxGraphModel>
  </diagram>
</mxfile>
